<svg width="65" height="73" viewBox="0 0 65 73" fill="none" xmlns="http://www.w3.org/2000/svg">
<path d="M27.2718 -2.12817L-6.1282 75.1274H-1.29383L28.3267 -2.12817H27.2718Z" fill="#051B2B"/>
<path d="M34.4826 -2.12817H32.6365L33.1637 5.01453H31.9332L32.4605 -2.12817H28.593L0.290863 75.1274H25.8682L26.7474 64.7713H38.3499L39.3167 75.1274H64.8062L36.3283 -2.12817H34.4826ZM31.2306 13.4656H33.8676L34.6585 22.0363H30.4397L31.2306 13.4656ZM29.7365 30.6073H35.3617L36.065 39.178H28.9457L29.7365 30.6073ZM27.5391 56.2004L28.33 47.6297H36.9435L37.7345 56.2004H27.5391Z" fill="#051B2B"/>
<path d="M71.1282 75.1282L37.7282 -2.12744H36.5854L66.2938 75.1282H71.1282Z" fill="#051B2B"/>
</svg>
